
      <svg data-logo="logo" xmlns="http://www.w3.org/2000/svg" viewBox="0 0 165 43">
        <g id="logogram" transform="translate(0, 1) rotate(0)"><path fill-rule="evenodd" clip-rule="evenodd" d="M26.1374 12.4853C24.4929 11.3864 22.5595 10.8 20.5817 10.8V0.799957C24.5373 0.799957 28.4041 1.97294 31.6931 4.17056C34.982 6.36819 37.5455 9.49176 39.0592 13.1463C40.573 16.8008 40.9691 20.8221 40.1974 24.7018C39.4256 28.5814 37.5208 32.145 34.7238 34.9421C31.9267 37.7391 28.3631 39.6439 24.4835 40.4156C20.6038 41.1874 16.5825 40.7913 12.928 39.2775C9.27347 37.7638 6.1499 35.2003 3.95227 31.9114C1.75464 28.6224 0.581665 24.7556 0.581665 20.7999H10.5817C10.5817 22.7778 11.1682 24.7112 12.267 26.3556C13.3658 28.0001 14.9276 29.2819 16.7548 30.0387C18.5821 30.7956 20.5928 30.9937 22.5326 30.6078C24.4724 30.2219 26.2542 29.2695 27.6527 27.871C29.0512 26.4725 30.0037 24.6907 30.3895 22.7509C30.7754 20.811 30.5773 18.8004 29.8204 16.9731C29.0636 15.1459 27.7818 13.5841 26.1374 12.4853Z" fill="#007DFC"/><path fill-rule="evenodd" clip-rule="evenodd" d="M10.5817 0.799988C10.5817 2.11321 10.323 3.41357 9.82046 4.62682C9.31792 5.84008 8.58132 6.94247 7.65274 7.87106C6.72415 8.79964 5.62176 9.53624 4.4085 10.0388C3.19525 10.5413 1.89489 10.8 0.58167 10.8L0.581665 20.7999C3.2081 20.7999 5.80883 20.2827 8.23534 19.2776C10.6619 18.2725 12.8666 16.7993 14.7238 14.9421C16.581 13.0849 18.0542 10.8802 19.0593 8.45365C20.0644 6.02714 20.5817 3.42639 20.5817 0.799957L10.5817 0.799988Z" fill="#007DFC"/></g>
        <g id="logotype" transform="translate(47, 1.5)"><path fill="#007DFC" d="M18.32 33.38L18.32 33.38Q15.28 33.38 12.95 32.09Q10.62 30.80 9.31 28.50Q8.00 26.21 8.00 23.27L8.00 23.27L8.00 8.29L13.53 8.29L13.53 23.59Q13.53 25.05 14.16 26.14Q14.79 27.23 15.89 27.80Q16.99 28.38 18.32 28.38L18.32 28.38Q19.72 28.38 20.77 27.80Q21.82 27.23 22.43 26.16Q23.05 25.09 23.05 23.62L23.05 23.62L23.05 8.29L28.58 8.29L28.58 23.30Q28.58 26.24 27.28 28.52Q25.99 30.80 23.68 32.09Q21.37 33.38 18.32 33.38ZM39.01 33.35L39.01 33.35Q36.59 33.35 34.72 32.20Q32.85 31.04 31.78 29.04Q30.71 27.05 30.71 24.49L30.71 24.49Q30.71 21.94 31.78 19.95Q32.85 17.95 34.72 16.79Q36.59 15.64 39.01 15.64L39.01 15.64Q40.76 15.64 42.17 16.30Q43.59 16.97 44.52 18.14Q45.45 19.31 45.55 20.82L45.55 20.82L45.55 27.99Q45.45 29.50 44.54 30.71Q43.63 31.91 42.19 32.63Q40.76 33.35 39.01 33.35ZM39.95 28.52L39.95 28.52Q41.11 28.52 41.95 28.01Q42.79 27.50 43.28 26.59Q43.77 25.68 43.77 24.49L43.77 24.49Q43.77 23.30 43.29 22.41Q42.82 21.52 41.96 20.99Q41.11 20.47 39.99 20.47L39.99 20.47Q38.87 20.47 38.01 20.99Q37.15 21.52 36.64 22.43Q36.14 23.34 36.14 24.49L36.14 24.49Q36.14 25.65 36.63 26.56Q37.12 27.47 37.99 27.99Q38.87 28.52 39.95 28.52ZM48.81 7.59L48.81 33L43.56 33L43.56 28.41L44.36 24.28L43.45 20.16L43.45 7.59L48.81 7.59ZM60.29 33.38L60.29 33.38Q57.52 33.38 55.37 32.25Q53.22 31.11 51.99 29.08Q50.77 27.05 50.77 24.49L50.77 24.49Q50.77 21.94 51.97 19.93Q53.18 17.91 55.25 16.76Q57.31 15.60 59.90 15.60L59.90 15.60Q62.42 15.60 64.34 16.69Q66.27 17.77 67.37 19.70Q68.48 21.63 68.48 24.11L68.48 24.11Q68.48 24.56 68.42 25.07Q68.37 25.58 68.23 26.24L68.23 26.24L53.57 26.28L53.57 22.60L65.96 22.57L63.65 24.11Q63.61 22.64 63.19 21.68Q62.77 20.71 61.95 20.21Q61.13 19.70 59.94 19.70L59.94 19.70Q58.68 19.70 57.75 20.28Q56.82 20.85 56.31 21.91Q55.81 22.95 55.81 24.46L55.81 24.46Q55.81 25.96 56.35 27.03Q56.89 28.10 57.89 28.68Q58.89 29.25 60.25 29.25L60.25 29.25Q61.51 29.25 62.53 28.82Q63.54 28.38 64.31 27.50L64.31 27.50L67.25 30.45Q65.99 31.91 64.21 32.65Q62.42 33.38 60.29 33.38ZM75.72 33L70.37 33L70.37 15.99L75.72 15.99L75.72 33ZM86.61 33L81.25 33L81.25 23.06Q81.25 21.77 80.46 21.05Q79.68 20.33 78.52 20.33L78.52 20.33Q77.72 20.33 77.09 20.66Q76.46 20.99 76.09 21.59Q75.72 22.18 75.72 23.06L75.72 23.06L73.66 22.15Q73.66 20.12 74.53 18.67Q75.41 17.21 76.91 16.43Q78.42 15.64 80.31 15.64L80.31 15.64Q82.09 15.64 83.51 16.44Q84.93 17.25 85.77 18.68Q86.61 20.12 86.61 22.11L86.61 22.11L86.61 33ZM97.49 33L92.14 33L92.14 23.06Q92.14 21.77 91.35 21.05Q90.56 20.33 89.41 20.33L89.41 20.33Q88.60 20.33 87.97 20.66Q87.34 20.99 86.97 21.59Q86.61 22.18 86.61 23.06L86.61 23.06L83.53 22.64Q83.60 20.47 84.56 18.91Q85.52 17.35 87.11 16.50Q88.71 15.64 90.70 15.64L90.70 15.64Q92.66 15.64 94.18 16.46Q95.71 17.28 96.60 18.81Q97.49 20.33 97.49 22.46L97.49 22.46L97.49 33ZM109.60 33.07L105.47 33.07L98.47 15.99L104.25 15.99L108.69 29.54L106.56 29.54L111.11 15.99L116.88 15.99L109.60 33.07ZM106.59 40.17L101.10 40.17L106.21 29.15L109.60 33.07L106.59 40.17Z"/></g>
        
      </svg>
    